<svg width="259" height="28" viewBox="0 0 259 28" fill="none" xmlns="http://www.w3.org/2000/svg">
<path d="M224.815 0C224.594 0 224.386 0.102011 224.25 0.276418L219.678 6.1551C219.587 6.27268 219.67 6.444 219.819 6.444H220.535C220.756 6.444 220.965 6.34199 221.1 6.16758L225.673 0.288895C225.764 0.171318 225.68 0 225.531 0H224.815Z" fill="#941B80"/>
<path d="M214.799 0.716C215.186 0.716 215.471 0.972657 215.51 1.34165L215.514 1.42873V3.56692C215.514 3.95248 215.257 4.23655 214.886 4.27517L214.799 4.27966H212.293C211.906 4.27966 211.621 4.02312 211.582 3.65403L211.577 3.56692V1.42873C211.577 1.04331 211.835 0.759122 212.206 0.72049L212.293 0.716H214.799Z" fill="#941B80"/>
<path d="M247.438 5.83533C247.037 5.83533 246.708 5.53373 246.666 5.14675L246.661 5.0626L246.661 1.48874C246.661 1.09039 246.964 0.762497 247.353 0.720548L247.438 0.716015H249.613C250.013 0.716015 250.342 1.01735 250.385 1.40454L250.389 1.48874L250.39 2.49742L252.891 2.49725C253.291 2.49725 253.62 2.79859 253.663 3.18577L253.667 3.26998V5.0626C253.667 5.46067 253.364 5.78881 252.975 5.83079L252.891 5.83533H247.438Z" fill="#941B80"/>
<path d="M42.2601 3.58C42.6469 3.58 42.9326 3.83702 42.9714 4.20573L42.9759 4.29273V15.7724C42.9759 16.2847 42.9303 16.7606 42.8404 17.1987L47.614 17.1979C48.111 17.1967 48.5554 16.9699 48.8832 16.6511C49.1752 16.3613 49.3625 15.9881 49.3979 15.5606L49.404 15.4161V10.7224C49.404 10.3291 49.6541 10.0359 50.0361 9.99861L50.12 9.99458H52.268C52.6662 9.99458 52.9422 10.2458 52.9796 10.6191L52.984 10.7073V15.3515C52.9852 16.8395 52.3649 18.2035 51.3714 19.1769C50.4304 20.1042 49.2534 20.7003 47.8393 20.7571L47.614 20.7616H43.0307C42.8177 20.7616 42.6153 20.6755 42.4698 20.5261L42.411 20.4583L41.6623 19.4857C40.8573 20.2777 39.6956 20.7142 38.2147 20.7579L37.9649 20.7616H30.0904C29.7036 20.7616 29.4179 20.5048 29.3791 20.1359L29.3745 20.0488V17.9106C29.3745 17.5256 29.6326 17.2411 30.003 17.2024L30.0904 17.1979H37.9649C38.8983 17.1979 39.356 16.7827 39.394 15.8962L39.3966 15.7724V4.29273C39.3966 3.9077 39.6548 3.62318 40.0251 3.58449L40.1125 3.58H42.2601Z" fill="#941B80"/>
<path d="M85.9222 11.5997C85.833 8.66744 83.5284 6.43092 80.556 6.43092H75.9028L75.5901 6.43572C75.1755 6.45129 74.6764 6.51663 74.4711 6.78729L72.9976 8.98896C72.7844 9.36467 72.9659 9.99458 73.3973 9.99458H80.556L80.6722 9.99843C81.5955 10.0597 82.3456 10.8438 82.3456 11.7764V17.2265H67.3125L67.225 17.231C66.8543 17.2696 66.5966 17.5538 66.5966 17.9392V20.0774L66.6011 20.1645C66.6399 20.5336 66.9253 20.7901 67.3125 20.7901H70.1759L70.1715 20.8949C70.0925 21.8435 68.9693 22.9283 68.0284 22.9283H62.2945L62.1683 22.9247C61.0407 22.8594 60.1465 21.9242 60.1465 20.7778L60.1539 14.271L60.1494 14.184C60.1105 13.8153 59.8249 13.5582 59.438 13.5582H57.2904L57.203 13.5627C56.8326 13.6014 56.5745 13.8859 56.5745 14.271V20.7901L56.5766 20.9709C56.6588 24.0907 59.1308 26.492 62.2929 26.492H68.0284L68.1996 26.4891C71.161 26.3906 73.7553 23.7518 73.7553 20.7901H85.2091L85.2963 20.7856C85.6663 20.7469 85.9249 20.4618 85.9249 20.0774V19.3647L86.7062 20.3548L86.7788 20.4426C87.0256 20.715 87.3204 20.7901 87.7146 20.7901H92.3677L92.5558 20.7876C95.4812 20.7076 97.3787 18.6522 97.3787 15.6964V10.7073L97.3742 10.6203C97.3354 10.2515 97.0497 9.99458 96.6629 9.99458H94.5153L94.4279 9.99907C94.0576 10.0377 93.7994 10.3222 93.7994 10.7073V15.6964L93.7968 15.9248C93.7588 16.811 93.301 17.2265 92.3677 17.2265H85.9249V11.7764L85.9222 11.5997Z" fill="#941B80"/>
<path d="M50.0464 22.8807C50.4466 22.8807 50.776 23.1823 50.8182 23.5693L50.8227 23.6534L50.8226 27.2273C50.8226 27.6256 50.5198 27.9535 50.1309 27.9955L50.0463 28H47.8715C47.471 28 47.1416 27.6987 47.0994 27.3115L47.0949 27.2273L47.0942 26.2186L44.5931 26.2188C44.1929 26.2188 43.8635 25.9174 43.8214 25.5302L43.8168 25.446V23.6534C43.8168 23.2553 44.1195 22.9272 44.5085 22.8852L44.5931 22.8807H50.0464Z" fill="#941B80"/>
<path d="M95.2311 22.9283C95.6184 22.9283 95.9037 23.185 95.9425 23.554L95.947 23.6411V25.7793C95.947 26.1648 95.6893 26.4489 95.3186 26.4875L95.2311 26.492H89.5042C89.117 26.492 88.8317 26.2355 88.7929 25.8664L88.7884 25.7793V23.6411C88.7884 23.2556 89.046 22.9715 89.4167 22.9328L89.5042 22.9283H95.2311Z" fill="#941B80"/>
<path d="M79.1242 22.9283C79.5113 22.9283 79.7968 23.185 79.8356 23.554L79.8401 23.6411V25.7793C79.8401 26.1648 79.5823 26.4489 79.2117 26.4875L79.1242 26.492H76.6187C76.2316 26.492 75.9462 26.2355 75.9074 25.8664L75.9028 25.7793V23.6411C75.9028 23.2556 76.1606 22.9715 76.5312 22.9328L76.6187 22.9283H79.1242Z" fill="#941B80"/>
<path d="M13.604 9.99458C13.9909 9.99458 14.2766 10.2516 14.3155 10.6202L14.32 10.7072L14.3202 17.2039L16.4682 17.2041C17.6122 17.2041 18.5473 16.3099 18.6126 15.1823L18.6162 15.0561L18.616 10.7073C18.616 10.3223 18.8752 10.0378 19.2453 9.99908L19.3326 9.99458H21.4428C21.8311 9.99458 22.1507 10.2873 22.1916 10.6635L22.196 10.7453L22.196 15.4441C22.1965 16.065 22.0886 16.6639 21.8907 17.2208L22.2109 17.2187C23.3493 17.2109 24.2759 16.3186 24.3406 15.1963L24.3442 15.0707L24.344 10.7073C24.344 10.3223 24.6032 10.0378 24.9733 9.99908L25.0606 9.99458H27.1708C27.5591 9.99458 27.8787 10.2873 27.9196 10.6635L27.924 10.7453V15.4441C27.9252 16.9084 27.3235 18.2506 26.3598 19.2084C25.447 20.1209 24.1858 20.7075 22.8021 20.7634L22.5826 20.7677H21.6157C21.409 20.7677 21.2127 20.683 21.0715 20.5361L20.2392 19.5632C19.3738 20.27 18.2722 20.7138 17.0793 20.7631L16.8546 20.7677L14.3202 20.7438C14.3202 23.4552 12.1688 25.6631 9.48055 25.7539L9.30824 25.7569H5.01224C2.30186 25.7569 0.0939684 23.6054 0.00314934 20.9172L0.000243088 20.7449L0 12.1326C0 11.7477 0.25808 11.4632 0.628572 11.4245L0.716 11.42H2.864C3.25106 11.42 3.53666 11.677 3.57549 12.0457L3.58 12.1326L3.58024 20.0452C3.58024 21.1891 4.47447 22.1242 5.60203 22.1896L5.72824 22.1932H8.59224C9.73618 22.1932 10.6713 21.299 10.7366 20.1714L10.7402 20.0452L10.74 10.7072C10.74 10.3222 10.9982 10.0377 11.3686 9.99907L11.456 9.99458H13.604Z" fill="#941B80"/>
<path d="M106.685 6.43092C109.654 6.43092 111.613 8.32018 111.693 11.2328L111.696 11.42V15.7749C111.696 18.7306 109.798 20.6814 106.873 20.7614L106.685 20.764H100.242C99.8555 20.764 99.5697 20.5071 99.5308 20.1383L99.5263 20.0513V17.9131C99.5263 17.5278 99.7845 17.2435 100.155 17.2048L100.242 17.2003H106.685C107.618 17.2003 108.076 16.7848 108.114 15.8986L108.117 15.7749V11.42C108.117 10.4908 107.7 10.035 106.809 9.99716L106.685 9.99458H100.242C99.8555 9.99458 99.5697 9.73756 99.5308 9.36885L99.5263 9.28185V7.14365C99.5263 6.7585 99.7845 6.47408 100.155 6.43542L100.242 6.43092H106.685Z" fill="#941B80"/>
<path d="M32.1773 4.10907C32.0741 3.74433 31.6581 3.58 31.2776 3.58H29.3745C28.9602 3.58 28.5463 3.89566 28.6587 4.29273L31.3917 14.0776C31.4969 14.4496 31.8378 14.7066 32.2262 14.7066H34.5602C34.9714 14.7066 35.2248 14.4034 35.1133 14.0093L32.1773 4.10907Z" fill="#941B80"/>
<path d="M194.387 7.06965C194.349 6.70065 194.063 6.444 193.676 6.444H187.949L187.862 6.44849C187.491 6.48712 187.233 6.77131 187.233 7.15673V9.29492L187.238 9.38203C187.277 9.75112 187.562 10.0077 187.949 10.0077H193.676L193.764 10.0032C194.134 9.96455 194.392 9.68048 194.392 9.29492V7.15673L194.387 7.06965Z" fill="#941B80"/>
<path d="M137.107 23.4494C137.069 23.0804 136.783 22.8237 136.396 22.8237H130.669L130.582 22.8282C130.211 22.8668 129.953 23.151 129.953 23.5364V25.6746L129.958 25.7617C129.997 26.1308 130.282 26.3874 130.669 26.3874H136.396L136.484 26.3829C136.854 26.3443 137.112 26.0602 137.112 25.6746V23.5364L137.107 23.4494Z" fill="#941B80"/>
<path d="M125.657 2.864C126.045 2.864 126.33 3.12066 126.369 3.48965L126.373 3.57673V5.71492C126.373 6.10048 126.115 6.38455 125.745 6.42317L125.657 6.42765H123.509C123.122 6.42765 122.837 6.17112 122.798 5.80203L122.793 5.71492V3.57673C122.793 3.19131 123.051 2.90712 123.422 2.86849L123.509 2.864H125.657Z" fill="#941B80"/>
<path d="M164.674 3.48965C164.635 3.12066 164.35 2.864 163.963 2.864H161.457L161.37 2.86849C160.999 2.90712 160.741 3.19131 160.741 3.57673V5.71492L160.746 5.80203C160.785 6.17112 161.07 6.42765 161.457 6.42765H163.963L164.05 6.42317C164.421 6.38455 164.678 6.10048 164.678 5.71492V3.57673L164.674 3.48965Z" fill="#941B80"/>
<path d="M146.206 0.276418C146.342 0.102011 146.55 0 146.771 0H147.487C147.636 0 147.72 0.171318 147.629 0.288895L143.056 6.16758C142.921 6.34199 142.712 6.444 142.491 6.444H141.775C141.626 6.444 141.543 6.27268 141.634 6.1551L146.206 0.276418Z" fill="#941B80"/>
<path fill-rule="evenodd" clip-rule="evenodd" d="M219.453 15.036C219.453 15.7956 219.305 16.5207 219.037 17.184H229.474C231.523 17.184 233.053 15.6531 233.053 13.604V12.888C233.053 10.8389 231.523 9.308 229.474 9.308H221.242C220.598 9.308 220.473 8.73058 220.884 8.234L226.913 0.533179C227.192 0.195527 227.607 0 228.045 0H230.795C231.349 0 231.652 0.6444 231.299 1.07077L227.685 5.728H229.474C233.579 5.728 236.633 8.78221 236.633 12.888V13.604C236.633 14.9294 236.315 16.1451 235.746 17.184H239.474C240.66 17.184 241.622 16.2223 241.622 15.036V10.74C241.622 10.3446 241.942 10.024 242.338 10.024H244.486C244.881 10.024 245.202 10.3446 245.202 10.74V15.036C245.202 15.7956 245.054 16.5207 244.785 17.184H247.339C248.526 17.184 249.487 16.2223 249.487 15.036V10.74C249.487 10.3446 249.808 10.024 250.203 10.024H252.351C252.747 10.024 253.067 10.3446 253.067 10.74V15.036C253.067 15.7956 252.919 16.5207 252.651 17.184H253.078C254.264 17.184 255.226 16.2223 255.226 15.036V10.74C255.226 10.3446 255.546 10.024 255.942 10.024H258.09C258.485 10.024 258.806 10.3446 258.806 10.74V15.036C258.806 18.1995 256.241 20.764 253.078 20.764H252.389C252.154 20.764 251.934 20.6487 251.801 20.4555L251.062 19.3892C250.061 20.2463 248.761 20.764 247.339 20.764H244.503C244.268 20.764 244.048 20.6487 243.914 20.4555L243.184 19.4004C242.184 20.2508 240.889 20.764 239.474 20.764H235.195C234.96 20.764 234.74 20.6487 234.606 20.4555L233.851 19.3648C232.66 20.2517 231.155 20.764 229.474 20.764H202.975C202.74 20.764 202.52 20.6487 202.386 20.4555L201.656 19.4003C200.656 20.2508 199.361 20.764 197.946 20.764H183.653C180.49 20.764 177.925 18.1995 177.925 15.036V10.74C177.925 10.3446 178.246 10.024 178.641 10.024H180.789C181.185 10.024 181.505 10.3446 181.505 10.74V15.036C181.505 16.2223 182.467 17.184 183.653 17.184H197.946C199.132 17.184 200.094 16.2223 200.094 15.036V10.74C200.094 10.3446 200.414 10.024 200.81 10.024H202.958C203.353 10.024 203.674 10.3446 203.674 10.74V15.036C203.674 15.7956 203.526 16.5207 203.257 17.184H208.414C208.145 16.5207 207.997 15.7956 207.997 15.036V12.888C207.997 9.72451 210.562 7.16 213.725 7.16C216.889 7.16 219.453 9.72451 219.453 12.888V15.036ZM215.873 12.888V15.036C215.873 16.2223 214.912 17.184 213.725 17.184C212.539 17.184 211.577 16.2223 211.577 15.036V12.888C211.577 11.7017 212.539 10.74 213.725 10.74C214.912 10.74 215.873 11.7017 215.873 12.888Z" fill="#941B80"/>
<path d="M158.589 13.604C158.589 14.9294 158.271 16.1451 157.702 17.184H163.578C164.764 17.184 165.726 16.2223 165.726 15.036V10.74C165.726 10.3446 166.046 10.024 166.442 10.024H168.59C168.985 10.024 169.306 10.3446 169.306 10.74V15.036C169.306 18.1995 166.741 20.764 163.578 20.764H158.583C158.348 20.764 158.128 20.6487 157.994 20.4555L156.693 18.5754C155.408 19.9411 153.561 20.764 151.43 20.764H139.074L137.976 19.3621C136.971 20.2354 135.658 20.764 134.222 20.764H127.795C127.56 20.764 127.34 20.6487 127.206 20.4555L126.42 19.3199V19.332C126.42 23.4378 123.366 26.492 119.261 26.492H118.53C118.09 26.492 117.674 26.2894 117.402 25.9427L115.87 23.986C115.46 23.4894 115.584 22.912 116.228 22.912H119.261C121.31 22.912 122.841 21.3811 122.841 19.332L122.84 10.74C122.84 10.3446 123.161 10.024 123.556 10.024H125.704C126.099 10.024 126.42 10.3446 126.42 10.74V17.184H134.222C135.408 17.184 136.37 16.2223 136.37 15.036V10.74C136.37 10.3446 136.69 10.024 137.086 10.024H139.234C139.629 10.024 139.95 10.3446 139.95 10.74V15.036C139.95 15.7956 139.802 16.5207 139.533 17.184H151.43C153.479 17.184 155.01 15.6531 155.01 13.604V12.888C155.01 10.8389 153.479 9.308 151.43 9.308H143.198C142.554 9.308 142.429 8.73058 142.84 8.234L148.869 0.533179C149.148 0.195527 149.563 0 150.001 0H152.751C153.305 0 153.608 0.6444 153.255 1.07077L149.641 5.728H151.43C155.535 5.728 158.589 8.78221 158.589 12.888V13.604Z" fill="#941B80"/>
<path d="M171.481 2.864C171.481 2.46856 171.802 2.148 172.197 2.148H174.345C174.741 2.148 175.061 2.46856 175.061 2.864V20.048C175.061 20.4434 174.741 20.764 174.345 20.764H172.197C171.802 20.764 171.481 20.4434 171.481 20.048V2.864Z" fill="#941B80"/>
</svg>
